<svg width="500" height="500" xmlns="http://www.w3.org/2000/svg" xmlns:xlink="http://www.w3.org/1999/xlink"><defs><path d="M370.042 1.506C313.03 1.15 130.944 16.378 76.525 26.58c-27.21 5.1-46.28 13.578-58.352 28.775C6.1 70.552 1.683 91.491 1.506 120.052c-.355 57.121 15.237 244.563 27.03 300.6 5.897 28.017 16.245 47.369 32.885 59.37 16.641 12.003 38.724 16.296 67.229 16.472 57.008.354 238.937-14.806 293.525-26.505 27.294-5.85 46.276-16.212 58.067-32.854 11.79-16.642 16.074-38.73 16.252-67.273.355-57.084-14.781-239.257-26.46-293.923-5.84-27.334-16.187-46.342-32.806-58.15-16.62-11.81-38.68-16.103-67.186-16.283z" id="a"/></defs><g fill="none" fill-rule="evenodd"><use fill="#FFF" xlink:href="#a"/><use fill="#282C37" xlink:href="#a"/><path d="M370.775.006C313.418-.354 130.228 14.97 75.48 25.232c-27.375 5.132-46.56 13.66-58.706 28.95C4.628 69.47.184 90.535.006 119.27c-.358 57.468 15.33 246.045 27.194 302.422 5.933 28.188 16.343 47.656 33.085 59.731 16.741 12.075 38.958 16.394 67.635 16.571 57.355.356 240.386-14.896 295.304-26.665 27.46-5.885 46.557-16.31 58.42-33.054 11.861-16.742 16.17-38.965 16.35-67.68.357-57.43-14.87-240.708-26.621-295.705-5.875-27.5-16.284-46.622-33.004-58.503-16.72-11.88-38.915-16.2-67.594-16.38zm-.075 10.808c27.619.17 47.387 4.418 61.413 14.384 14.025 9.966 23.144 25.972 28.695 51.955 1.295 6.062 2.653 14.095 4.039 23.389-.732-1.931-1.463-3.88-2.205-5.679-2.117-5.126-4.268-9.685-6.405-13.48-2.136-3.795-4.258-6.831-6.315-8.921-1.498-1.523-2.734-2.667-3.9-3.45-1.165-.78-2.264-1.198-3.487-1.262-1.223-.057-2.573.224-4.242.862-1.669.636-3.656 1.619-6.16 2.934-1.409.74-3.304 2.23-5.565 4.315-2.26 2.084-4.887 4.76-7.757 7.882-5.74 6.243-12.455 14.254-19.18 22.798-6.725 8.544-13.457 17.622-19.23 26.007-5.773 8.385-10.586 16.076-13.47 21.84-3.458 6.91-6.753 13.117-7.324 13.792-.284.335-3.355-.335-7.884-1.583-4.53-1.247-10.518-3.076-16.65-5.057-12.262-3.963-25.088-8.535-27.902-10.302-.48-.303-.61-1.458-.435-3.284.17-1.826.657-4.32 1.4-7.308 1.485-5.976 4.016-13.917 7.231-22.38 3.216-8.463 6.213-17.946 8.454-26.404 2.24-8.459 3.724-15.89 3.908-20.261.15-3.595.207-6.396.057-8.587-.151-2.192-.492-3.774-1.143-4.944-.653-1.17-1.611-1.927-2.985-2.457-1.372-.531-3.158-.834-5.464-1.107-.403-.038-.858-.056-1.367-.038v.005c-1.524.056-3.521.42-5.949 1.073-3.236.87-7.24 2.25-11.923 4.108-9.365 3.715-21.444 9.337-35.513 16.575-9.757 5.02-17.712 9.254-24.673 13.303-6.96 4.049-12.928 7.909-18.707 12.18-5.78 4.271-11.369 8.95-17.581 14.637-6.212 5.687-13.045 12.38-21.305 20.675a496.992 496.992 0 0 0-22.16 23.769 508.021 508.021 0 0 0-20.507 25.057 503.308 503.308 0 0 0-18.673 26.028 482.376 482.376 0 0 0-16.658 26.694 446.707 446.707 0 0 0-14.466 27.042c-4.437 9.038-8.481 18.083-12.096 27.083-3.616 9-6.804 17.956-9.537 26.813-2.734 8.858-5.013 17.62-6.805 26.23-1.873 8.995-3.236 19.192-4.102 29.85-.866 10.657-1.237 21.776-1.113 32.614.132 10.838.74 21.393 1.833 30.93.548 4.767 1.216 9.281 2.003 13.446.787 4.164 1.69 7.98 2.715 11.357a147.74 147.74 0 0 0 2.176 6.565c-12.471-10.243-20.805-26.145-26.043-51.035-11.24-53.406-27.302-244.84-26.958-300.125.169-27.642 4.498-45.938 14.419-58.426 9.92-12.488 26.095-20.154 52.25-25.057 52.311-9.806 238.002-25.388 293.239-25.04l.007-.005zm-59.397 59.322c.905.037 1.552.245 1.94.636.601.614.012 5.198-1.43 12.091-1.44 6.894-3.73 16.097-6.518 25.944-2.788 9.846-5.321 19.426-7.159 26.931-1.837 7.505-2.98 12.933-2.98 14.473 0 1.346.653 2.705 2.183 4.188 1.53 1.483 3.939 3.093 7.45 4.952 3.512 1.86 8.126 3.968 14.07 6.443 5.944 2.475 13.218 5.318 22.046 8.646 4.71 1.777 7.751 3.53 10.427 4.142 1.338.305 2.583.322 3.9-.094 1.315-.405 2.7-1.235 4.321-2.63 3.24-2.791 7.415-7.843 13.82-16.276 6.407-8.433 15.048-20.247 27.22-36.561 9.416-12.62 16.47-22.083 21.907-28.827 2.719-3.373 5.03-6.066 7.033-8.136 2.003-2.07 3.696-3.513 5.17-4.39 1.47-.878 2.728-1.189 3.857-.983 1.13.205 2.128.92 3.099 2.094 1.94 2.349 3.752 6.528 6.176 12.095 1.72 3.952 4.503 12.443 7.792 23.415 3.288 10.972 7.084 24.426 10.83 38.305a1841.258 1841.258 0 0 1 8.906 34.358c6.686 69.171 12.033 147 11.83 179.565-.17 27.654-4.41 47.45-14.36 61.496a55.91 55.91 0 0 1-8.234 9.237c-1.397-1.161-2.618-2.199-4.217-3.504-10.55-8.615-21.173-16.772-31.937-24.495a585.34 585.34 0 0 0-32.78-21.908 563.482 563.482 0 0 0-34.033-19.505 575.817 575.817 0 0 0-35.703-17.284 623.534 623.534 0 0 0-37.772-15.245c-12.983-4.762-26.381-9.216-40.26-13.388-13.88-4.172-28.24-8.064-43.153-11.707-14.913-3.644-30.38-7.038-46.462-10.213-17.745-3.504-34.212-7.008-46.45-9.829-12.237-2.82-20.245-4.957-21.068-5.733-.412-.388-.263-1.673.354-3.66s1.71-4.675 3.18-7.874c2.94-6.399 7.405-14.837 12.69-23.77a775.029 775.029 0 0 1 17.345-27.995c5.78-8.884 11.56-17.33 17.366-25.352 5.806-8.022 11.633-15.62 17.502-22.82a414.024 414.024 0 0 1 17.745-20.408c5.967-6.414 11.99-12.448 18.092-18.116a307.822 307.822 0 0 1 18.551-15.929 280.62 280.62 0 0 1 19.116-13.869 267.746 267.746 0 0 1 19.79-11.922c19.046-10.377 33.457-17.652 43.495-21.942 5.019-2.145 8.945-3.544 11.81-4.209 1.432-.333 2.597-.48 3.503-.448v.01zm-78.054 135.16v.003c-.514.057-1.077.202-1.69.409-.744.254-1.837 1.238-3.18 2.786-1.341 1.55-2.93 3.658-4.67 6.16-3.483 5.004-7.57 11.577-11.469 18.344-3.899 6.767-7.612 13.73-10.35 19.522-2.738 5.792-4.499 10.413-4.499 12.493 0 1.925.188 3.46.537 4.622.351 1.164.873 1.953 1.543 2.382.67.429 1.487.498 2.441.22.954-.279 2.043-.904 3.246-1.862 2.407-1.918 5.279-5.171 8.48-9.647 3.2-4.475 6.726-10.173 10.447-16.989 3.58-6.557 6.45-12.42 8.588-17.474 2.14-5.055 3.546-9.301 4.2-12.623.325-1.66.466-3.092.412-4.277-.057-1.184-.3-2.127-.738-2.807-.439-.682-1.071-1.1-1.902-1.246a4.287 4.287 0 0 0-1.395-.02l-.001.003zm123.323 34.01c-1.192.057-2.484.71-4.023 2.065-1.537 1.355-3.326 3.423-5.51 6.333-2.184 2.91-4.765 6.664-7.893 11.39-4.266 6.448-7.75 11.918-10.523 16.584-2.774 4.666-4.84 8.526-6.27 11.745-1.43 3.22-2.222 5.8-2.458 7.908-.235 2.108.094 3.747.898 5.079.52.854 1.058 1.549 1.619 2.086.56.536 1.146.91 1.758 1.123 1.225.424 2.56.194 4.051-.713s3.137-2.495 4.975-4.783c1.84-2.289 3.87-5.28 6.135-8.997 6.708-11.008 11.724-19.224 15.38-25.437 3.657-6.213 5.956-10.422 7.231-13.409.638-1.494 1.02-2.683 1.19-3.664.17-.983.113-1.753-.094-2.42-.435-1.33-1.559-2.229-3.036-3.474-1.142-.964-2.236-1.48-3.428-1.414l-.002-.001zM76.517 332.434c.288.004.595.056.924.132 1.314.342 2.979 1.293 5.228 2.516 1.975 1.074 9.346 3.217 19.63 5.805 10.286 2.587 23.485 5.616 37.116 8.469a726.31 726.31 0 0 1 36.6 8.668 758.418 758.418 0 0 1 36.238 10.542 763.15 763.15 0 0 1 35.475 12.251 739.252 739.252 0 0 1 34.324 13.79 688.216 688.216 0 0 1 32.78 15.151 614.493 614.493 0 0 1 30.846 16.356c9.915 5.633 19.441 11.438 28.514 17.386 9.073 5.947 17.69 12.04 25.79 18.247l2.892 2.216c-67.6 10.689-224.8 23.526-274.893 23.216-22.753-.132-40.15-3.054-53.423-9.731-.89-3.105-2.228-7.1-4.153-12.53-.855-2.41-1.615-5.478-2.281-9.057-.667-3.578-1.237-7.666-1.711-12.125-.949-8.918-1.513-19.308-1.67-30.017-.15-10.71.094-21.737.763-31.93.67-10.194 1.761-19.556 3.293-26.928 1.308-6.298 2.269-10.987 3.111-14.405.841-3.418 1.568-5.564 2.412-6.767.421-.603.873-.966 1.383-1.14.254-.093.525-.131.813-.131v.016zm103.465 46.394l-8.61 10.968c-2.367 3.017-5.288 7.488-8.086 12.265-2.799 4.778-5.474 9.86-7.353 14.093-1.649 3.714-2.882 6.548-3.693 8.828-.812 2.28-1.201 4.006-1.156 5.497.056 1.49.527 2.747 1.45 4.095.923 1.348 2.29 2.786 4.11 4.636 2.075 2.108 6.379 4.895 11.64 7.688 5.263 2.792 11.484 5.592 17.393 7.721 8.289 2.988 14.782 5.172 20.068 6.43 2.644.629 4.986 1.022 7.1 1.173 2.115.15 4.001.056 5.734-.3a15.271 15.271 0 0 0 4.811-1.878c1.5-.898 2.92-2.07 4.334-3.538 2.83-2.934 5.635-7.036 9.01-12.433 3.656-5.846 6.625-11.052 8.91-15.638 2.284-4.586 3.887-8.556 4.814-11.931.926-3.375 1.176-6.156.758-8.368-.208-1.107-.587-2.072-1.129-2.896a6.877 6.877 0 0 0-2.125-2.06c-2.88-1.808-19.354-8.025-36.609-13.819l-31.371-10.533zm18.04 28.785c1.537.038 3.116.318 4.702.937a8.196 8.196 0 0 1 2.892 1.93c.813.832 1.478 1.835 1.995 2.96 1.035 2.246 1.483 4.97 1.362 7.742-.132 2.772-.815 5.59-2.057 8.034a15.102 15.102 0 0 1-2.273 3.331 11.833 11.833 0 0 1-3.086 2.445c-2.59 1.408-4.87 2.436-6.872 3.078-2.003.643-3.726.9-5.207.77-1.482-.132-2.717-.65-3.744-1.56-1.028-.908-1.843-2.207-2.484-3.9a20.216 20.216 0 0 1-1.23-5.366 20.64 20.64 0 0 1 .214-5.227c.292-1.692.79-3.315 1.463-4.834a19.86 19.86 0 0 1 2.512-4.192 17.612 17.612 0 0 1 3.356-3.29 14.9 14.9 0 0 1 4.006-2.131 13 13 0 0 1 4.452-.727z" fill="#FFF" fill-rule="nonzero"/></g></svg>