<svg width="714" height="176" xmlns="http://www.w3.org/2000/svg"><g fill="#FFF" fill-rule="nonzero"><path d="M109.15 22.495c-14.952-.094-62.706 3.89-76.978 6.557-7.135 1.334-12.137 3.552-15.303 7.526-3.166 3.975-4.324 9.45-4.37 16.92-.094 14.94 3.995 63.962 7.088 78.618 1.547 7.328 4.26 12.389 8.624 15.528 4.365 3.139 10.156 4.261 17.632 4.307 14.95.093 62.663-3.872 76.979-6.932 7.158-1.53 12.136-4.24 15.228-8.592 3.092-4.352 4.216-10.13 4.262-17.594.094-14.93-3.876-62.574-6.94-76.872-1.53-7.148-4.244-12.12-8.603-15.208-4.358-3.088-10.144-4.211-17.62-4.258zm-.02 2.81c7.2.043 12.352 1.148 16.009 3.739 3.656 2.59 6.033 6.751 7.48 13.506.337 1.576.691 3.664 1.053 6.08-.191-.502-.382-1.009-.575-1.476-.552-1.333-1.113-2.518-1.67-3.505-.557-.986-1.11-1.775-1.646-2.319-.39-.396-.713-.693-1.017-.896-.303-.203-.59-.312-.909-.329-.318-.014-.67.059-1.105.224-.435.166-.953.421-1.606.763-.367.192-.861.58-1.45 1.122a36.043 36.043 0 0 0-2.023 2.049c-1.496 1.623-3.247 3.705-5 5.926a135.233 135.233 0 0 0-5.012 6.761c-1.505 2.18-2.76 4.18-3.512 5.678-.901 1.796-1.76 3.41-1.909 3.585-.074.087-.875-.087-2.055-.411-1.18-.325-2.742-.8-4.34-1.315-3.197-1.03-6.54-2.219-7.274-2.678-.125-.079-.159-.38-.113-.854.044-.475.171-1.123.365-1.9.387-1.553 1.046-3.618 1.885-5.818.838-2.2 1.62-4.665 2.203-6.864.584-2.198.971-4.13 1.02-5.267.038-.934.053-1.662.014-2.232-.04-.57-.128-.98-.298-1.285-.17-.304-.42-.5-.778-.639-.358-.138-.823-.217-1.425-.288a2.738 2.738 0 0 0-.356-.01v.002c-.397.015-.918.109-1.55.279-.844.226-1.888.585-3.109 1.068-2.44.965-5.59 2.427-9.257 4.308-2.543 1.305-4.617 2.406-6.432 3.459-1.814 1.052-3.37 2.056-4.876 3.166-1.507 1.11-2.964 2.327-4.583 3.805-1.62 1.478-3.4 3.218-5.554 5.375a129.339 129.339 0 0 0-5.776 6.179 132.14 132.14 0 0 0-10.214 13.28 125.344 125.344 0 0 0-4.342 6.94 116.02 116.02 0 0 0-3.771 7.029 103.687 103.687 0 0 0-3.153 7.04 89.499 89.499 0 0 0-2.486 6.97 74.757 74.757 0 0 0-1.774 6.82c-.489 2.338-.844 4.989-1.07 7.76a92.478 92.478 0 0 0-.29 8.478c.035 2.817.193 5.561.478 8.04.143 1.24.317 2.413.522 3.496.205 1.082.44 2.074.708 2.952.182.597.373 1.163.567 1.706-3.25-2.662-5.423-6.796-6.789-13.266-2.93-13.884-7.117-63.649-7.027-78.02.044-7.187 1.173-11.943 3.759-15.19 2.586-3.246 6.802-5.238 13.62-6.513 13.636-2.55 62.042-6.6 76.44-6.51h.003zm-15.484 15.42c.236.01.405.064.506.166.157.16.003 1.351-.373 3.143-.375 1.792-.972 4.185-1.699 6.744-.727 2.56-1.387 5.05-1.866 7.002-.479 1.95-.777 3.361-.777 3.762 0 .35.17.703.57 1.089.398.385 1.026.804 1.941 1.287.916.483 2.118 1.032 3.668 1.675 1.55.643 3.446 1.382 5.747 2.248 1.228.461 2.02.917 2.718 1.076.349.08.673.084 1.016-.024.343-.106.705-.321 1.127-.684.845-.726 1.933-2.039 3.603-4.231 1.67-2.192 3.922-5.263 7.095-9.504 2.455-3.281 4.293-5.741 5.71-7.494.71-.877 1.312-1.577 1.834-2.115.522-.538.964-.914 1.348-1.142.383-.228.71-.308 1.005-.255.295.053.555.24.808.544.506.61.978 1.697 1.61 3.145.449 1.027 1.174 3.234 2.031 6.086.857 2.853 1.847 6.35 2.824 9.958.817 3.021 1.606 6.07 2.32 8.932 1.744 17.982 3.138 38.214 3.085 46.68-.044 7.188-1.15 12.335-3.744 15.986-.62.873-1.332 1.67-2.146 2.401-.364-.302-.682-.571-1.1-.91-2.75-2.24-5.519-4.36-8.325-6.368a152.617 152.617 0 0 0-8.545-5.696 146.992 146.992 0 0 0-8.871-5.07 150.281 150.281 0 0 0-9.307-4.493 162.801 162.801 0 0 0-9.847-3.963 186.162 186.162 0 0 0-10.494-3.48 222.956 222.956 0 0 0-11.25-3.044c-3.887-.947-7.919-1.83-12.11-2.655-4.627-.91-8.92-1.822-12.11-2.555-3.19-.733-5.277-1.289-5.491-1.49-.108-.101-.069-.435.092-.952.16-.516.446-1.215.829-2.047.766-1.663 1.93-3.857 3.308-6.179a201.384 201.384 0 0 1 4.521-7.278 160.672 160.672 0 0 1 4.527-6.59 130.185 130.185 0 0 1 4.563-5.932c1.53-1.872 3.07-3.638 4.626-5.306a91.435 91.435 0 0 1 4.716-4.709 80.182 80.182 0 0 1 4.835-4.14 73.145 73.145 0 0 1 4.984-3.606 69.834 69.834 0 0 1 5.159-3.1c4.964-2.697 8.72-4.588 11.337-5.703 1.309-.558 2.332-.922 3.079-1.095.373-.086.677-.125.913-.116v.003zM73.3 75.863c-.134.015-.28.053-.44.107-.194.066-.48.322-.829.724-.35.403-.764.951-1.218 1.601-.908 1.301-1.973 3.01-2.99 4.77-1.016 1.758-1.984 3.568-2.697 5.074-.714 1.506-1.173 2.707-1.173 3.248 0 .5.049.899.14 1.201.092.303.227.508.402.62.175.111.388.13.636.057.25-.073.533-.235.847-.484.627-.499 1.376-1.345 2.21-2.508.834-1.163 1.754-2.645 2.723-4.417.934-1.704 1.682-3.228 2.24-4.542.557-1.314.924-2.418 1.094-3.282.085-.431.122-.804.107-1.111-.014-.308-.078-.554-.192-.73a.71.71 0 0 0-.496-.324 1.12 1.12 0 0 0-.363-.005zm32.148 8.841c-.31.015-.648.185-1.049.537-.4.352-.867.89-1.436 1.646-.57.757-1.242 1.732-2.058 2.961a108.539 108.539 0 0 0-2.743 4.311c-.723 1.213-1.261 2.217-1.634 3.054-.373.836-.58 1.507-.641 2.055-.061.548.025.974.234 1.32.136.223.276.403.422.543.146.14.299.237.458.292.32.11.668.05 1.056-.186.39-.235.818-.648 1.297-1.243.48-.595 1.009-1.372 1.6-2.339 1.748-2.861 3.056-4.997 4.009-6.612.953-1.615 1.552-2.71 1.885-3.486.166-.389.266-.698.31-.953.044-.255.03-.455-.025-.629-.113-.346-.406-.58-.791-.903-.298-.25-.583-.385-.894-.367zm-73.004 24.21c.075 0 .155.014.24.033.343.09.777.337 1.364.655.514.279 2.436.836 5.117 1.509 2.681.672 6.122 1.46 9.675 2.201 3.185.665 6.37 1.419 9.54 2.253a198.12 198.12 0 0 1 18.695 5.926 193.016 193.016 0 0 1 8.947 3.584 179.635 179.635 0 0 1 8.545 3.94 160.336 160.336 0 0 1 8.041 4.251 137.068 137.068 0 0 1 7.433 4.52 112.177 112.177 0 0 1 6.723 4.743l.754.576c-17.622 2.78-58.6 6.116-71.659 6.036-5.93-.035-10.466-.794-13.926-2.53-.232-.807-.58-1.846-1.083-3.258-.222-.626-.42-1.423-.594-2.354a41.296 41.296 0 0 1-.446-3.152c-.247-2.318-.395-5.02-.435-7.803-.04-2.784.024-5.65.198-8.3.175-2.65.46-5.084.859-7 .34-1.638.591-2.857.81-3.745.22-.889.41-1.447.63-1.76a.733.733 0 0 1 .36-.296.606.606 0 0 1 .212-.034v.004zm26.97 12.06l-2.243 2.851c-.618.784-1.379 1.947-2.108 3.188-.73 1.242-1.428 2.564-1.917 3.664-.43.966-.752 1.702-.963 2.295-.211.593-.313 1.041-.301 1.429.014.387.137.714.378 1.064.24.35.596.725 1.071 1.206.541.548 1.663 1.272 3.035 1.998a36.312 36.312 0 0 0 4.533 2.007c2.161.777 3.854 1.345 5.232 1.672.689.163 1.3.266 1.85.305a5.48 5.48 0 0 0 1.495-.078 3.987 3.987 0 0 0 1.254-.488 5.504 5.504 0 0 0 1.13-.92c.738-.763 1.47-1.83 2.349-3.232.953-1.52 1.727-2.873 2.322-4.065.596-1.193 1.014-2.225 1.255-3.102.242-.877.307-1.6.198-2.175a2.042 2.042 0 0 0-.294-.753 1.79 1.79 0 0 0-.554-.536c-.75-.47-5.046-2.086-9.543-3.592l-8.178-2.738zm4.704 7.483c.4.01.812.082 1.225.243.29.113.542.286.754.502.212.216.385.477.52.77.27.583.387 1.292.355 2.012a5.195 5.195 0 0 1-.536 2.089c-.162.317-.36.61-.593.866a3.083 3.083 0 0 1-.804.635c-.675.366-1.27.633-1.792.8-.521.168-.97.234-1.357.2a1.647 1.647 0 0 1-.976-.405c-.268-.236-.48-.574-.647-1.014a5.243 5.243 0 0 1 .116-4.01 5.16 5.16 0 0 1 .655-1.09c.258-.328.552-.616.875-.855a3.888 3.888 0 0 1 1.044-.554c.37-.128.76-.195 1.16-.19zM475.32 72.03c-4.07.174-7.754 1.178-10.579 3.554v.01c-3.021 2.567-4.629 5.98-4.629 9.88 0 3.389 1.154 6.373 3.412 8.648.006.004.013.005.02.01 2.29 2.248 5.743 3.953 10.34 5.294.466.137 1.116.324 1.973.564h.01c2.748.756 4.737 1.648 5.932 2.541 1.195.894 1.571 1.638 1.571 2.485 0 1.706-.522 2.868-1.696 3.87-.002.001-.01-.002-.01 0-1.169.97-2.77 1.5-5.021 1.5-2.352 0-3.925-.53-4.926-1.405-1.001-.903-1.643-2.3-1.81-4.472a1.41 1.41 0 0 0-1.41-1.3h-7.455a1.409 1.409 0 0 0-1.409 1.444c.114 4.618 1.672 8.433 4.686 11.074.004.004.007.005.01.01 3.045 2.612 7.247 3.851 12.39 3.851 4.85 0 8.942-1.327 12.037-4.023h.01c3.112-2.714 4.734-6.378 4.734-10.626 0-2.011-.407-3.9-1.217-5.609l-.01-.01c-.784-1.703-1.953-3.197-3.46-4.433-1.874-1.559-5.152-2.772-10.196-4.147-.01-.004-.02-.005-.03-.01l-.967-.239c-3.5-.958-5.762-1.967-6.392-2.494l-.01-.01c-.694-.603-1.025-1.328-1.025-2.589 0-1.345.44-2.245 1.572-3.115 1.124-.865 2.638-1.338 4.714-1.338 2.02 0 3.36.507 4.313 1.434l.01.01c.946.9 1.5 2.204 1.571 4.213a1.41 1.41 0 0 0 1.409 1.357h7.177a1.41 1.41 0 0 0 1.41-1.404v-.325c0-4.348-1.498-8.01-4.447-10.616-4.052-2.536-8.499-3.83-12.601-3.584zM209.58 54.859a1.424 1.424 0 0 0-.403.076l-7.743 2.552c-.575.19-.965.724-.968 1.328v59.358a1.41 1.41 0 0 0 1.409 1.415h7.743a1.41 1.41 0 0 0 1.418-1.415v-24.28c0-4.405.89-7.475 2.424-9.336 1.57-1.9 3.853-2.876 7.293-2.876 2.997 0 4.819.86 6.028 2.58.006.005.012.015.019.02 1.226 1.69 2.003 4.785 2.003 9.278v24.615a1.41 1.41 0 0 0 1.408 1.414h7.791a1.41 1.41 0 0 0 1.409-1.414v-25.39c0-6.225-1.494-11.296-4.6-15.03-3.102-3.73-7.485-5.647-12.736-5.647-2.636 0-5.119.526-7.388 1.596l-.01.01c-1.333.636-2.45 1.819-3.641 2.818V56.274a1.41 1.41 0 0 0-1.457-1.414v-.001zM312.724 54.86a1.406 1.406 0 0 0-.393.066l-6.995 2.246a1.408 1.408 0 0 0-.978 1.337v59.11a1.41 1.41 0 0 0 1.409 1.405h7.56a1.41 1.41 0 0 0 1.42-1.405v-4.013c1.452 1.443 2.782 3.067 4.609 3.956l.01.01c2.84 1.353 6.065 2.016 9.62 2.016 3.182 0 6.248-.62 9.152-1.835a23.704 23.704 0 0 0 7.791-5.217c.004-.005.007-.015.01-.02a21.84 21.84 0 0 0 4.763-7.462c1.088-2.787 1.629-5.814 1.629-9.059 0-6.919-2.147-12.707-6.44-17.056-4.269-4.355-10.013-6.536-16.904-6.536-3.545 0-6.837.72-9.803 2.178-1.947.95-3.427 2.625-5.003 4.147V56.273a1.41 1.41 0 0 0-1.456-1.414zm15.218 27.07c4.06 0 7.19 1.287 9.727 3.927 2.56 2.64 3.833 5.947 3.833 10.215 0 4.296-1.274 7.614-3.833 10.253-2.535 2.614-5.664 3.889-9.727 3.889-4.06 0-7.211-1.284-9.775-3.927-2.56-2.64-3.823-5.947-3.823-10.215 0-4.24 1.261-7.535 3.823-10.177h.01c2.565-2.668 5.708-3.965 9.765-3.965zM670.696 54.859a1.407 1.407 0 0 0-.393.067l-7.743 2.494a1.407 1.407 0 0 0-.978 1.347v59.406a1.41 1.41 0 0 0 1.41 1.415h7.742a1.41 1.41 0 0 0 1.409-1.415V94.418c0-4.3.895-7.29 2.424-9.106 1.565-1.853 3.857-2.81 7.303-2.81 3.003 0 4.834.85 6.037 2.523l.02.02c1.22 1.646 1.993 4.66 1.993 9.049v24.08a1.41 1.41 0 0 0 1.418 1.414h7.781a1.41 1.41 0 0 0 1.41-1.414V93.339c0-6.1-1.5-11.086-4.61-14.744-3.107-3.654-7.483-5.523-12.727-5.523-2.632 0-5.11.522-7.378 1.567h-.01c-1.34.626-2.463 1.795-3.66 2.78V56.274a1.41 1.41 0 0 0-1.448-1.414zM183.335 62.742a1.425 1.425 0 0 0-.403.077l-7.551 2.513c-.578.19-.969.73-.968 1.338v5.045h-4.159a1.41 1.41 0 0 0-1.418 1.405v6.545a1.41 1.41 0 0 0 1.418 1.405h4.16v26.889c0 3.884.839 6.923 2.836 8.886v.01c2.006 1.939 5.106 2.733 9.094 2.733h4.226a1.41 1.41 0 0 0 1.409-1.414v-7.396a1.41 1.41 0 0 0-1.409-1.405h-3.958c-.865 0-1.2-.192-1.399-.41-.177-.219-.422-.83-.422-1.95V81.07h5.779a1.41 1.41 0 0 0 1.409-1.405V73.12a1.41 1.41 0 0 0-1.409-1.405h-5.779v-7.568a1.41 1.41 0 0 0-1.456-1.404zM539.07 62.742a1.407 1.407 0 0 0-.393.067l-7.551 2.485c-.579.19-.969.73-.968 1.337v5.772h-4.169a1.41 1.41 0 0 0-1.408 1.405v6.44a1.41 1.41 0 0 0 1.408 1.405h4.169v26.459c0 3.83.836 6.844 2.836 8.781l.01.01c2.009 1.912 5.09 2.685 9.075 2.685h4.226a1.41 1.41 0 0 0 1.419-1.414v-7.282a1.41 1.41 0 0 0-1.419-1.414h-3.948c-.881 0-1.233-.195-1.428-.41-.173-.214-.402-.793-.402-1.883V81.653h5.778a1.41 1.41 0 0 0 1.419-1.405v-6.44a1.41 1.41 0 0 0-1.419-1.405h-5.778v-8.256a1.41 1.41 0 0 0-1.457-1.405zM271.683 71.744c-6.96 0-12.799 2.256-17.192 6.727-4.393 4.472-6.593 10.406-6.593 17.496 0 3.034.523 5.963 1.581 8.753h.01c1.06 2.765 2.587 5.231 4.571 7.357.004.003.007.005.01.01 2.268 2.405 4.986 4.267 8.126 5.561 3.145 1.296 6.536 1.94 10.13 1.94 4.326 0 8.262-.798 11.758-2.408 3.523-1.61 6.733-4.098 9.621-7.415a1.404 1.404 0 0 0-.191-2.026l-5.54-4.386a1.414 1.414 0 0 0-1.935.172c-1.917 2.167-3.988 3.775-6.229 4.855-2.236 1.077-4.626 1.615-7.235 1.615-4.103 0-7.35-1.12-9.966-3.335-2.137-1.828-2.94-4.347-3.47-7.09h35.323a1.41 1.41 0 0 0 1.409-1.415v-.554c0-7.6-2.223-13.916-6.689-18.662-4.44-4.771-10.39-7.195-17.498-7.195zm-.086 9.517c3.494 0 6.32 1.004 8.71 3.048 1.916 1.637 2.717 3.94 3.374 6.383h-24.437c.633-2.377 1.413-4.626 3.393-6.287v-.01c2.505-2.106 5.415-3.134 8.96-3.134zM384.804 71.744c-3.272 0-6.394.59-9.314 1.777a23.487 23.487 0 0 0-7.8 5.084 22.139 22.139 0 0 0-5.147 7.71c-1.157 2.887-1.725 6.019-1.725 9.365 0 3.375.565 6.532 1.725 9.422h.01a22.314 22.314 0 0 0 5.136 7.625 24.031 24.031 0 0 0 7.8 5.122h.01c2.919 1.157 6.037 1.739 9.306 1.739 3.269 0 6.377-.582 9.295-1.74h.01a24.071 24.071 0 0 0 7.81-5.12 22.193 22.193 0 0 0 5.137-7.664c1.16-2.89 1.734-6.034 1.734-9.384 0-3.324-.577-6.453-1.734-9.364h.01a22.162 22.162 0 0 0-5.06-7.692c-2.253-2.258-4.856-3.981-7.782-5.141-2.922-1.159-6.074-1.74-9.42-1.74zm0 9.517c3.857 0 6.826 1.296 9.277 4.004h.01c2.447 2.68 3.67 6.061 3.67 10.415 0 4.382-1.225 7.785-3.67 10.463-2.448 2.657-5.424 3.928-9.286 3.928-3.826 0-6.809-1.285-9.286-3.966l-.01-.01c-2.447-2.708-3.67-6.094-3.67-10.415 0-4.326 1.227-7.705 3.68-10.415 2.45-2.709 5.43-4.004 9.285-4.004zM432.966 72.03c-4.07.174-7.755 1.178-10.58 3.554v.01c-3.02 2.567-4.628 5.98-4.628 9.88 0 3.389 1.154 6.373 3.412 8.648.006.004.012.005.019.01 2.29 2.248 5.743 3.953 10.34 5.294.467.137 1.117.324 1.974.564h.01c2.748.756 4.736 1.648 5.931 2.541 1.196.893 1.572 1.638 1.572 2.485 0 1.706-.522 2.868-1.696 3.87-.002.001-.01-.002-.01 0-1.17.97-2.77 1.5-5.021 1.5-2.353 0-3.926-.53-4.926-1.405-1.002-.903-1.643-2.3-1.811-4.472a1.41 1.41 0 0 0-1.409-1.3h-7.455a1.409 1.409 0 0 0-1.41 1.444c.115 4.618 1.672 8.433 4.687 11.074l.01.01c3.045 2.612 7.246 3.851 12.39 3.851 4.85 0 8.942-1.327 12.037-4.023h.01c3.111-2.714 4.734-6.378 4.734-10.626 0-2.011-.407-3.9-1.218-5.609l-.01-.01c-.783-1.703-1.953-3.197-3.459-4.433-1.874-1.559-5.153-2.772-10.196-4.147-.01-.004-.02-.005-.03-.01l-.967-.239c-3.5-.958-5.763-1.967-6.392-2.494l-.01-.01c-.695-.603-1.025-1.328-1.025-2.589 0-1.345.44-2.245 1.571-3.115 1.125-.865 2.639-1.338 4.715-1.338 2.019 0 3.36.507 4.312 1.434l.01.01c.947.9 1.5 2.204 1.572 4.213a1.41 1.41 0 0 0 1.408 1.357h7.178a1.41 1.41 0 0 0 1.409-1.405v-.324c0-4.348-1.498-8.01-4.447-10.616-4.052-2.536-8.498-3.83-12.6-3.584zM579.996 71.744c-6.96 0-12.8 2.256-17.192 6.727-4.394 4.472-6.593 10.406-6.593 17.496 0 3.033.533 5.962 1.59 8.753 1.06 2.765 2.587 5.231 4.572 7.357l.01.01c2.267 2.405 4.995 4.267 8.136 5.561 3.144 1.296 6.535 1.94 10.129 1.94 4.323 0 8.255-.8 11.748-2.408 3.523-1.61 6.743-4.098 9.631-7.415a1.404 1.404 0 0 0-.192-2.026l-5.548-4.386a1.414 1.414 0 0 0-1.936.172c-1.917 2.167-3.988 3.775-6.229 4.855-2.235 1.077-4.626 1.615-7.235 1.615-4.106 0-7.348-1.117-9.966-3.335-2.137-1.828-2.929-4.347-3.46-7.09h35.314a1.41 1.41 0 0 0 1.418-1.415v-.554c0-7.6-2.223-13.916-6.689-18.662-4.44-4.771-10.399-7.195-17.508-7.195zm-.077 9.517c3.494 0 6.32 1.004 8.711 3.048 1.916 1.638 2.717 3.938 3.373 6.383h-24.436c.633-2.377 1.413-4.626 3.392-6.287v-.01c2.505-2.106 5.415-3.134 8.96-3.134zM636.293 71.743c-3.356 0-6.478.566-9.325 1.701a21.067 21.067 0 0 0-7.474 4.94 23.103 23.103 0 0 0-5.108 7.817l-.01.01c-1.132 2.935-1.696 6.097-1.696 9.469 0 3.372.564 6.553 1.696 9.488l.01.01a23.188 23.188 0 0 0 5.098 7.76c.002.001.01-.003.01 0 .002.001-.002.009 0 .009 2.108 2.157 4.612 3.81 7.475 4.94 2.869 1.133 5.993 1.701 9.324 1.701 3.235 0 6.18-.49 8.816-1.49h.01c2.662-1.028 5.173-2.64 7.523-4.788a1.404 1.404 0 0 0 .105-1.959l-4.916-5.628a1.414 1.414 0 0 0-2.175.067c-1.097 1.403-2.394 2.43-3.948 3.134h-.01c-1.52.7-3.305 1.07-5.405 1.07-3.856 0-6.799-1.277-9.19-3.927-2.363-2.648-3.565-6.029-3.565-10.387 0-4.359 1.207-7.746 3.603-10.425 2.425-2.708 5.36-3.994 9.152-3.994 1.974 0 3.659.326 5.108.956.01.003.02.005.03.01 1.467.604 2.777 1.56 3.957 2.904.565.641 1.568.636 2.127-.01l4.84-5.59a1.404 1.404 0 0 0-.125-1.958c-2.152-1.95-4.564-3.42-7.216-4.386-2.63-.97-5.54-1.443-8.72-1.443h-.001zM509.04 105.512c-1.884 0-3.64.72-4.993 2.045-1.336 1.308-2.06 3.063-2.06 4.95 0 1.85.747 3.586 2.08 4.96.003.004.004.014.01.019 1.345 1.352 3.092 2.102 4.963 2.102s3.619-.75 4.964-2.102c1.346-1.352 2.09-3.107 2.09-4.979 0-1.908-.72-3.675-2.061-4.988-1.334-1.305-3.094-2.006-4.993-2.006z"/></g></svg>